<svg width="97" height="97" viewBox="0 0 97 97" fill="none" xmlns="http://www.w3.org/2000/svg">
<path d="M2.03612 3.86033C23.929 0.203395 46.7809 2.98674 68.8171 3.44164C75.3824 3.57716 82.5286 4.15562 89.0012 2.58431C90.4147 2.24118 92.7305 3.55106 92.7904 4.81735C93.1148 11.6716 92.9239 18.5001 93.5 25.3533C94.7133 39.7856 93.871 54.154 94.7568 68.6184C95.2109 76.0326 94.9328 83.1377 94.6977 90.5101C94.6928 90.6633 94.9677 92.42 94.8357 92.6235C94.7438 92.7651 94.5459 92.806 94.3823 92.8428C93.4856 93.0444 90.2734 93.2451 90.0459 93.2615C65.4334 95.0307 40.6153 94.5975 15.9521 94.6571C11.907 94.6669 7.88849 94.8359 3.84953 94.9961C1.82578 95.0764 2.35974 93.9177 2.43034 92.0254C2.66896 85.629 3.74807 79.2552 3.53415 72.8452C3.35542 67.4891 2.46196 62.1855 2.17409 56.8351C1.83993 50.6242 2.0755 44.4068 2.15438 38.1932C2.26888 29.1742 1.99578 20.1325 3.9678 11.2772C4.64679 8.22821 5.74088 5.52956 5.2293 2.42481" stroke="black" stroke-width="4" stroke-linecap="round" stroke-linejoin="round"/>
</svg>
