<svg width="99" height="100" viewBox="0 0 99 100" fill="none" xmlns="http://www.w3.org/2000/svg">
<path d="M4.47422 6.05502C14.6889 6.1896 24.8933 6.6332 35.1107 6.71536C51.8238 6.84976 68.9836 7.40277 85.5872 5.14218C88.6625 4.72348 94.2703 4.10346 96.9215 2.09294C97.3626 1.75838 95.8206 2.40868 95.3877 2.75328C94.0649 3.8061 93.1013 5.19807 92.6587 6.81247C91.2383 11.993 92.6497 18.2425 92.8778 23.4959C93.3926 35.3512 94.4751 47.2064 94.3917 59.077C94.3358 67.0326 94.4439 75.1526 93.6746 83.0825C93.2512 87.4462 92.5846 92.3352 88.7743 95.2018C85.0384 98.0124 80.3747 97.9345 75.8863 97.9791C65.9451 98.078 56.0055 97.8016 46.0665 97.649C36.7063 97.5052 27.3144 97.5593 17.9598 97.2411C13.3318 97.0837 8.37292 96.7439 5.94828 92.3468C3.31997 87.5803 3.00094 81.4819 2.68145 76.2071C1.93851 63.941 4.02694 51.7852 4.91245 39.5773C5.25784 34.8158 5.74512 29.9525 5.17141 25.1856C4.76548 21.8128 3.46035 19.0378 2.48225 15.8437C0.484991 9.32121 5.03298 6.7406 9.85254 3.60785" stroke="black" stroke-width="4" stroke-linecap="round" stroke-linejoin="round"/>
</svg>
