<svg width="97" height="97" viewBox="0 0 97 97" fill="none" xmlns="http://www.w3.org/2000/svg">
<path d="M2 5.0607C8.50529 2.46969 15.8214 3.09302 22.6901 3.38359C36.9283 3.98592 51.1591 4.7444 65.4178 4.65117C72.198 4.60684 79.6282 4.82921 86.1476 2.60353C87.8467 2.02345 88.7046 1.75156 90.5075 2.29151C94.1842 3.39261 94.0605 5.38126 94.3721 9.13649C95.5304 23.0996 94.7079 37.1714 94.8279 51.1619C94.9206 61.971 94.9907 72.6728 93.8766 83.4366C93.6046 86.0645 93.9266 89.5746 93.0046 92.0757C91.462 96.2604 84.2668 94.7412 80.9552 94.6889C64.0177 94.4215 47.1799 94.2745 30.2408 94.5329C23.9937 94.6282 17.877 94.581 11.6712 94.0259C10.7403 93.9426 5.03044 94.4926 4.8538 93.3628C3.90247 87.278 5.0718 80.7477 5.0718 74.6415C5.0718 67.8532 4.34021 61.1628 3.90254 54.3991C3.40347 46.6867 3.57895 39.0491 4.14035 31.3485C4.64914 24.3697 5.7836 17.1404 5.34926 10.1311C5.24338 8.4224 4.8538 6.77531 4.8538 5.0607" stroke="black" stroke-width="4" stroke-linecap="round" stroke-linejoin="round"/>
</svg>
